<?xml version="1.0" encoding="iso-8859-1"?>
<!DOCTYPE svg PUBLIC "-//W3C//DTD SVG 1.1//EN" "http://www.w3.org/Graphics/SVG/1.1/DTD/svg11.dtd">
<svg xmlns="http://www.w3.org/2000/svg" xmlns:xlink="http://www.w3.org/1999/xlink">
	<symbol id="folder" viewBox="0 0 536.461 536.46">
		<path d="M144.752,263.52c19.603-9.038,38.354-13.559,56.243-13.559h237.548v-45.683c0-17.511-6.283-32.555-18.85-45.118
			c-12.565-12.562-27.596-18.842-45.11-18.842H219.266v-9.136c0-17.511-6.28-32.548-18.842-45.107
			c-12.563-12.562-27.6-18.846-45.111-18.846h-91.36c-17.511,0-32.548,6.283-45.111,18.846C6.279,98.635,0,113.672,0,131.183
			v274.084c0,0.764,0.049,1.955,0.144,3.576c0.094,1.615,0.144,2.807,0.144,3.566l1.426-1.704L97.93,297.637
			C109.54,283.931,125.148,272.556,144.752,263.52z"/>
		<path d="M528.898,290.214c-5.041-2.478-10.797-3.72-17.272-3.72H200.995c-12.562,0-26.219,3.381-40.968,10.14
			c-14.75,6.766-26.219,14.986-34.401,24.701l-95.93,113.059c-5.902,6.662-8.853,12.945-8.853,18.849
			c0,5.708,2.523,9.802,7.566,12.272c5.043,2.478,10.8,3.716,17.273,3.716h310.64c12.56,0,26.21-3.381,40.963-10.136
			c14.75-6.756,26.214-14.989,34.399-24.701l95.931-113.059c5.899-6.663,8.846-12.939,8.846-18.849
			C536.465,296.779,533.946,292.689,528.898,290.214z"/>
	</symbol>
	<symbol id="star" viewBox="0 0 475.075 475.075">
		<path d="M475.075,186.573c0-7.043-5.328-11.42-15.992-13.135L315.766,152.6L251.529,22.694c-3.614-7.804-8.281-11.704-13.99-11.704
		c-5.708,0-10.372,3.9-13.989,11.704L159.31,152.6L15.986,173.438C5.33,175.153,0,179.53,0,186.573c0,3.999,2.38,8.567,7.139,13.706
		l103.924,101.068L86.51,444.096c-0.381,2.666-0.57,4.575-0.57,5.712c0,3.997,0.998,7.374,2.996,10.136
		c1.997,2.766,4.993,4.142,8.992,4.142c3.428,0,7.233-1.137,11.42-3.423l128.188-67.386l128.194,67.379
		c4,2.286,7.806,3.43,11.416,3.43c7.812,0,11.714-4.75,11.714-14.271c0-2.471-0.096-4.374-0.287-5.716l-24.551-142.744
		l103.634-101.069C472.604,195.33,475.075,190.76,475.075,186.573z M324.619,288.5l20.551,120.2l-107.634-56.821L129.614,408.7
		l20.843-120.2l-87.365-84.799l120.484-17.7l53.959-109.064l53.957,109.064l120.494,17.7L324.619,288.5z"/>
	</symbol>

</svg>