<?xml version="1.0" encoding="utf-8"?>
<!DOCTYPE svg PUBLIC "-//W3C//DTD SVG 1.1//EN" "http://www.w3.org/Graphics/SVG/1.1/DTD/svg11.dtd">
<svg xmlns="http://www.w3.org/2000/svg" xmlns:xlink="http://www.w3.org/1999/xlink">
	<symbol id="airplane" viewBox="0 0 512 512">
		<path d="M497.081,14.933c-1.515-1.495-3.75-1.912-5.703-1.048L26.753,221.692c-6.771,3.027-11.623,9.185-12.947,16.471
	c-1.355,7.286,0.978,14.769,6.206,20.006l100.095,100.095L392.792,111.76c1.009-0.93,2.585-0.89,3.563,0.088
	c0.979,0.974,1.009,2.553,0.096,3.584L149.978,388.117l12.693,98.073c0.412,3.29,2.492,6.141,5.482,7.553
	c3.027,1.425,8.979,0.101,11.059-2.492c11.658-14.422,32.234-42.187,32.234-42.187l42.376,42.906
	c5.259,5.237,12.725,7.562,20.006,6.215c7.307-1.342,13.452-6.185,16.475-12.944L498.12,20.622
	C499.002,18.692,498.563,16.429,497.081,14.933z"/>
	</symbol>
	<symbol id="fb" viewBox="0 0 430.113 430.114">
		<path id="Facebook" d="M158.081,83.3c0,10.839,0,59.218,0,59.218h-43.385v72.412h43.385v215.183h89.122V214.936h59.805
		c0,0,5.601-34.721,8.316-72.685c-7.784,0-67.784,0-67.784,0s0-42.127,0-49.511c0-7.4,9.717-17.354,19.321-17.354
		c9.586,0,29.818,0,48.557,0c0-9.859,0-43.924,0-75.385c-25.016,0-53.476,0-66.021,0C155.878-0.004,158.081,72.48,158.081,83.3z"/>
	</symbol>
	<symbol id="google" viewBox="0 0 512 512">
		<g>
			<polygon points="448,224 448,160 416,160 416,224 352,224 352,256 416,256 416,320 448,320 448,256 512,256 512,224 		"/>
		</g>
		<g>
			<path d="M160,224v64h90.528c-13.216,37.248-48.8,64-90.528,64c-52.928,0-96-43.072-96-96c0-52.928,43.072-96,96-96
			c22.944,0,45.024,8.224,62.176,23.168l42.048-48.256C235.424,109.824,198.432,96,160,96C71.776,96,0,167.776,0,256
			s71.776,160,160,160s160-71.776,160-160v-32H160z"/>
		</g>
	</symbol>
	<symbol id="inst" viewBox="0 0 36.663 36.664">
		<path d="M32.305,0H4.357C1.95,0,0,1.946,0,4.349v27.967c0,2.4,1.95,4.348,4.357,4.348h27.947
		c2.407,0,4.358-1.947,4.358-4.348V4.349C36.663,1.946,34.712,0,32.305,0 M26.352,5.729c0-0.632,0.513-1.146,1.146-1.146h3.438
		c0.632,0,1.145,0.514,1.145,1.146v3.438c0,0.633-0.513,1.146-1.145,1.146h-3.438c-0.633,0-1.146-0.513-1.146-1.146V5.729z
		 M18.374,11.341c3.894,0,7.051,3.149,7.051,7.033c0,3.885-3.157,7.034-7.051,7.034s-7.051-3.148-7.051-7.034
		C11.323,14.49,14.48,11.341,18.374,11.341 M33.226,32.08c0,0.633-0.513,1.146-1.146,1.146H4.583c-0.633,0-1.146-0.514-1.146-1.146
		V14.895H8.02c-0.597,0.858-0.798,2.462-0.798,3.479c0,6.135,5.003,11.127,11.152,11.127s11.153-4.992,11.153-11.127
		c0-1.018-0.145-2.596-0.885-3.479h4.583V32.08z"/>
	</symbol>
	<symbol id="speak" viewBox="0 0 511.626 511.626">
		<path d="M500.922,193.257c-7.139-7.135-15.753-10.706-25.845-10.706h0.007V72.917c0-9.9-3.62-18.464-10.848-25.697
			c-7.231-7.233-15.808-10.85-25.7-10.85c-87.745,73.089-173.018,109.636-255.815,109.636H45.682
			c-12.562,0-23.318,4.471-32.264,13.418C4.471,168.373,0,179.129,0,191.688v54.816c0,12.563,4.464,23.319,13.412,32.264
			c8.945,8.952,19.701,13.418,32.264,13.418h34.833c-3.235,10.284-5.33,20.804-6.28,31.549c-0.949,10.756-1.283,20.126-0.999,28.124
			c0.284,7.994,1.714,17.604,4.283,28.835c2.568,11.229,4.759,19.698,6.567,25.406c1.807,5.715,4.853,14.705,9.135,26.98
			c4.281,12.278,7.089,20.604,8.42,24.981c8.754,7.994,21.316,13.278,37.685,15.845c16.374,2.563,32.408,1.475,48.111-3.285
			c15.702-4.757,26.314-12.662,31.833-23.695c-7.232-5.712-13.084-10.517-17.556-14.421c-4.474-3.901-9.041-8.654-13.706-14.271
			c-4.665-5.612-7.849-10.849-9.563-15.701c-1.712-4.853-2.284-10.372-1.712-16.562c0.57-6.188,2.76-12.423,6.567-18.699
			c-7.232-7.426-11.043-16.228-11.421-26.412c-0.378-10.178,2.572-19.746,8.852-28.691c6.279-8.945,14.943-15.229,25.981-18.843
			c75.187,6.28,152.462,42.442,231.833,108.493c9.893,0,18.469-3.617,25.693-10.852c7.234-7.228,10.848-15.797,10.848-25.693V255.642
			c10.096,0,18.709-3.567,25.845-10.706c7.132-7.139,10.704-15.752,10.704-25.837C511.626,209.01,508.054,200.396,500.922,193.257z
			 M438.537,354.997c-74.426-56.907-147.51-89.366-219.267-97.356v-77.09c71.183-7.804,144.277-40.446,219.267-97.927V354.997z"/>
	</symbol>
	<symbol id="team" viewBox="0 0 487.3 487.3">
		<g>
			<path d="M362.1,326.05c-32.6-26.8-67.7-44.5-74.9-48c-0.8-0.4-1.3-1.2-1.3-2.1v-50.7c6.4-4.3,10.6-11.5,10.6-19.7v-52.6
				c0-26.2-21.2-47.4-47.4-47.4h-5.6h-5.7c-26.2,0-47.4,21.2-47.4,47.4v52.6c0,8.2,4.2,15.5,10.6,19.7v50.7c0,0.9-0.5,1.7-1.3,2.1
				c-7.2,3.5-42.3,21.3-74.9,48c-5.9,4.8-9.3,12.1-9.3,19.7v36h128h127.9v-36C371.4,338.15,368,330.85,362.1,326.05z"/>
		</g>
		<g>
			<path d="M479.2,290.55c-27.3-22.5-56.8-37.4-62.8-40.3c-0.7-0.3-1.1-1-1.1-1.8v-42.5c5.3-3.6,8.9-9.6,8.9-16.6v-44.1
				c0-21.9-17.8-39.7-39.7-39.7h-4.7h-4.7c-21.9,0-39.7,17.8-39.7,39.7v44.1c0,6.9,3.5,13,8.9,16.6v42.5c0,0.8-0.4,1.4-1.1,1.8
				c-3.7,1.8-16.5,8.2-32.1,18.2c15.6,8.6,40.3,23.4,63.6,42.6c8.2,6.7,13.6,16,15.6,26.2h97v-30.2
				C487,300.65,484.2,294.55,479.2,290.55z"/>
		</g>
		<g>
			<path d="M144,250.25c-0.7-0.3-1.1-1-1.1-1.8v-42.5c5.3-3.6,8.9-9.6,8.9-16.6v-44.1c0-21.9-17.8-39.7-39.7-39.7h-4.7h-4.9
				c-21.9,0-39.7,17.8-39.7,39.7v44.1c0,6.9,3.5,13,8.9,16.6v42.5c0,0.8-0.4,1.4-1.1,1.8c-6,2.9-35.5,17.8-62.8,40.3
				c-4.9,4.1-7.8,10.1-7.8,16.5v30.2h97c1.9-10.2,7.4-19.5,15.6-26.2c23.3-19.2,48-34,63.6-42.6
				C160.5,258.45,147.7,252.05,144,250.25z"/>
		</g>
	</symbol>
	<symbol id="tw" viewBox="0 0 512.002 512.002">
		<path d="M512.002,97.211c-18.84,8.354-39.082,14.001-60.33,16.54c21.686-13,38.342-33.585,46.186-58.115
			c-20.299,12.039-42.777,20.78-66.705,25.49c-19.16-20.415-46.461-33.17-76.674-33.17c-58.011,0-105.042,47.029-105.042,105.039
			c0,8.233,0.929,16.25,2.72,23.939c-87.3-4.382-164.701-46.2-216.509-109.753c-9.042,15.514-14.223,33.558-14.223,52.809
			c0,36.444,18.544,68.596,46.73,87.433c-17.219-0.546-33.416-5.271-47.577-13.139c-0.01,0.438-0.01,0.878-0.01,1.321
			c0,50.894,36.209,93.348,84.261,103c-8.813,2.399-18.094,3.687-27.674,3.687c-6.769,0-13.349-0.66-19.764-1.888
			c13.368,41.73,52.16,72.104,98.126,72.949c-35.95,28.176-81.243,44.967-130.458,44.967c-8.479,0-16.84-0.496-25.058-1.471
			c46.486,29.807,101.701,47.197,161.021,47.197c193.211,0,298.868-160.062,298.868-298.872c0-4.554-0.104-9.084-0.305-13.59
			C480.111,136.775,497.92,118.275,512.002,97.211z"/>
	</symbol>
	<symbol id="youtube" viewBox="0 0 512 512">
		<path d="M490.24,113.92c-13.888-24.704-28.96-29.248-59.648-30.976C399.936,80.864,322.848,80,256.064,80
			c-66.912,0-144.032,0.864-174.656,2.912c-30.624,1.76-45.728,6.272-59.744,31.008C7.36,138.592,0,181.088,0,255.904
			C0,255.968,0,256,0,256c0,0.064,0,0.096,0,0.096v0.064c0,74.496,7.36,117.312,21.664,141.728
			c14.016,24.704,29.088,29.184,59.712,31.264C112.032,430.944,189.152,432,256.064,432c66.784,0,143.872-1.056,174.56-2.816
			c30.688-2.08,45.76-6.56,59.648-31.264C504.704,373.504,512,330.688,512,256.192c0,0,0-0.096,0-0.16c0,0,0-0.064,0-0.096
			C512,181.088,504.704,138.592,490.24,113.92z M192,352V160l160,96L192,352z"/>
	</symbol>
</svg>