<?xml version="1.0" encoding="iso-8859-1"?>
<!DOCTYPE svg PUBLIC "-//W3C//DTD SVG 1.1//EN" "http://www.w3.org/Graphics/SVG/1.1/DTD/svg11.dtd">
<svg xmlns="http://www.w3.org/2000/svg" xmlns:xlink="http://www.w3.org/1999/xlink">
	<symbol id="login" viewBox="0 0 95.667 95.667">
		<path d="M39.173,72.344l39.447-22.777c0.619-0.356,1-1.018,1-1.731s-0.381-1.375-1-1.732L39.173,23.324
			c-0.619-0.357-1.381-0.357-2,0c-0.619,0.357-1,1.018-1,1.732v10.605H2.121c-1.104,0-2,0.896-2,2v20.344c0,1.104,0.896,2,2,2
			h34.053v10.604c0,0.716,0.381,1.375,1,1.732c0.31,0.18,0.655,0.268,1,0.268C38.519,72.609,38.864,72.521,39.173,72.344z"/>
		<path d="M80.775,0H40.026c-1.104,0-2,0.896-2,2v6c0,1.104,0.896,2,2,2h40.749c2.632,0,4.771,2.141,4.771,4.771v66.125
			c0,2.631-2.141,4.771-4.771,4.771H40.026c-1.104,0-2,0.896-2,2v6c0,1.104,0.896,2,2,2h40.749c8.146,0,14.771-6.627,14.771-14.771
			V14.772C95.546,6.627,88.92,0,80.775,0z"/>
	</symbol>
	<symbol id="mail" viewBox="0 0 511.626 511.626">
		<path d="M49.106,178.729c6.472,4.567,25.981,18.131,58.528,40.685c32.548,22.554,57.482,39.92,74.803,52.099
			c1.903,1.335,5.946,4.237,12.131,8.71c6.186,4.476,11.326,8.093,15.416,10.852c4.093,2.758,9.041,5.852,14.849,9.277
			c5.806,3.422,11.279,5.996,16.418,7.7c5.14,1.718,9.898,2.569,14.275,2.569h0.287h0.288c4.377,0,9.137-0.852,14.277-2.569
			c5.137-1.704,10.615-4.281,16.416-7.7c5.804-3.429,10.752-6.52,14.845-9.277c4.093-2.759,9.229-6.376,15.417-10.852
			c6.184-4.477,10.232-7.375,12.135-8.71c17.508-12.179,62.051-43.11,133.615-92.79c13.894-9.703,25.502-21.411,34.827-35.116
			c9.332-13.699,13.993-28.07,13.993-43.105c0-12.564-4.523-23.319-13.565-32.264c-9.041-8.947-19.749-13.418-32.117-13.418H45.679
			c-14.655,0-25.933,4.948-33.832,14.844C3.949,79.562,0,91.934,0,106.779c0,11.991,5.236,24.985,15.703,38.974
			C26.169,159.743,37.307,170.736,49.106,178.729z"/>
		<path d="M483.072,209.275c-62.424,42.251-109.824,75.087-142.177,98.501c-10.849,7.991-19.65,14.229-26.409,18.699
			c-6.759,4.473-15.748,9.041-26.98,13.702c-11.228,4.668-21.692,6.995-31.401,6.995h-0.291h-0.287
			c-9.707,0-20.177-2.327-31.405-6.995c-11.228-4.661-20.223-9.229-26.98-13.702c-6.755-4.47-15.559-10.708-26.407-18.699
			c-25.697-18.842-72.995-51.68-141.896-98.501C17.987,202.047,8.375,193.762,0,184.437v226.685c0,12.57,4.471,23.319,13.418,32.265
			c8.945,8.949,19.701,13.422,32.264,13.422h420.266c12.56,0,23.315-4.473,32.261-13.422c8.949-8.949,13.418-19.694,13.418-32.265
			V184.437C503.441,193.569,493.927,201.854,483.072,209.275z"/>
	</symbol>
	<symbol id="register" viewBox="0 0 438.529 438.529">
		<path d="M219.265,219.267c30.271,0,56.108-10.71,77.518-32.121c21.412-21.411,32.12-47.248,32.12-77.515
			c0-30.262-10.708-56.1-32.12-77.516C275.366,10.705,249.528,0,219.265,0S163.16,10.705,141.75,32.115
			c-21.414,21.416-32.121,47.253-32.121,77.516c0,30.267,10.707,56.104,32.121,77.515
			C163.166,208.557,189.001,219.267,219.265,219.267z"/>
		<path d="M419.258,335.036c-0.668-9.609-2.002-19.985-3.997-31.121c-1.999-11.136-4.524-21.457-7.57-30.978
			c-3.046-9.514-7.139-18.794-12.278-27.836c-5.137-9.041-11.037-16.748-17.703-23.127c-6.666-6.377-14.801-11.465-24.406-15.271
			c-9.617-3.805-20.229-5.711-31.84-5.711c-1.711,0-5.709,2.046-11.991,6.139c-6.276,4.093-13.367,8.662-21.266,13.708
			c-7.898,5.037-18.182,9.609-30.834,13.695c-12.658,4.093-25.361,6.14-38.118,6.14c-12.752,0-25.456-2.047-38.112-6.14
			c-12.655-4.086-22.936-8.658-30.835-13.695c-7.898-5.046-14.987-9.614-21.267-13.708c-6.283-4.093-10.278-6.139-11.991-6.139
			c-11.61,0-22.222,1.906-31.833,5.711c-9.613,3.806-17.749,8.898-24.412,15.271c-6.661,6.379-12.562,14.086-17.699,23.127
			c-5.137,9.042-9.229,18.326-12.275,27.836c-3.045,9.521-5.568,19.842-7.566,30.978c-2,11.136-3.332,21.505-3.999,31.121
			c-0.666,9.616-0.998,19.466-0.998,29.554c0,22.836,6.949,40.875,20.842,54.104c13.896,13.224,32.36,19.835,55.39,19.835h249.533
			c23.028,0,41.49-6.611,55.388-19.835c13.901-13.229,20.845-31.265,20.845-54.104C420.264,354.502,419.932,344.652,419.258,335.036
			z"/>
	</symbol>
	<symbol id="phone" viewBox="0 0 578.106 578.106">
		<path d="M577.83,456.128c1.225,9.385-1.635,17.545-8.568,24.48l-81.396,80.781
			c-3.672,4.08-8.465,7.551-14.381,10.404c-5.916,2.857-11.729,4.693-17.439,5.508c-0.408,0-1.635,0.105-3.676,0.309
			c-2.037,0.203-4.689,0.307-7.953,0.307c-7.754,0-20.301-1.326-37.641-3.979s-38.555-9.182-63.645-19.584
			c-25.096-10.404-53.553-26.012-85.376-46.818c-31.823-20.805-65.688-49.367-101.592-85.68
			c-28.56-28.152-52.224-55.08-70.992-80.783c-18.768-25.705-33.864-49.471-45.288-71.299
			c-11.425-21.828-19.993-41.616-25.705-59.364S4.59,177.362,2.55,164.51s-2.856-22.95-2.448-30.294
			c0.408-7.344,0.612-11.424,0.612-12.24c0.816-5.712,2.652-11.526,5.508-17.442s6.324-10.71,10.404-14.382L98.022,8.756
			c5.712-5.712,12.24-8.568,19.584-8.568c5.304,0,9.996,1.53,14.076,4.59s7.548,6.834,10.404,11.322l65.484,124.236
			c3.672,6.528,4.692,13.668,3.06,21.42c-1.632,7.752-5.1,14.28-10.404,19.584l-29.988,29.988c-0.816,0.816-1.53,2.142-2.142,3.978
			s-0.918,3.366-0.918,4.59c1.632,8.568,5.304,18.36,11.016,29.376c4.896,9.792,12.444,21.726,22.644,35.802
			s24.684,30.293,43.452,48.653c18.36,18.77,34.68,33.354,48.96,43.76c14.277,10.4,26.215,18.053,35.803,22.949
			c9.588,4.896,16.932,7.854,22.031,8.871l7.648,1.531c0.816,0,2.145-0.307,3.979-0.918c1.836-0.613,3.162-1.326,3.979-2.143
			l34.883-35.496c7.348-6.527,15.912-9.791,25.705-9.791c6.938,0,12.443,1.223,16.523,3.672h0.611l118.115,69.768
			C571.098,441.238,576.197,447.968,577.83,456.128z"/>
	</symbol>
	<symbol id="search" viewBox="0 0 56.966 56.966">
		<path d="M55.146,51.887L41.588,37.786c3.486-4.144,5.396-9.358,5.396-14.786c0-12.682-10.318-23-23-23s-23,10.318-23,23
			s10.318,23,23,23c4.761,0,9.298-1.436,13.177-4.162l13.661,14.208c0.571,0.593,1.339,0.92,2.162,0.92
			c0.779,0,1.518-0.297,2.079-0.837C56.255,54.982,56.293,53.08,55.146,51.887z M23.984,6c9.374,0,17,7.626,17,17s-7.626,17-17,17
			s-17-7.626-17-17S14.61,6,23.984,6z"/>
	</symbol>

</svg>